<?xml version="1.0" encoding="UTF-8"?><svg id="a" xmlns="http://www.w3.org/2000/svg" viewBox="0 0 39.69 44.54"><defs><style>.b{fill:#8980f5;}</style></defs><path class="b" d="M19.79,44.54L3.56,40.08,0,0H39.69l-3.56,40.08-16.34,4.46Zm-14.36-6.02l14.37,3.94,14.46-3.94L37.5,2H2.19l3.24,36.52Zm14.37-2.18l-10.53-2.74-.87-8.99h6.72l.32,3.92,4.25,1.14,4.27-1.23,.35-4.23H8.18L6.71,7.9H31.73l.38,.36c.13,.15,.49,.53,.38,1.92l-.38,4.42H14.28l.23,2.8H31.78l-.19,2.28-1.29,13.81-10.5,2.85Zm-8.68-4.33l8.67,2.26,8.7-2.36,.02-.13,1.11-12.38H12.67l-.57-6.8H30.28l.22-2.58s0-.08,0-.12H8.87l.02,.22,1.12,12.08H26.48l-.65,7.77-6.13,1.77-6.15-1.66-.28-3.48h-2.68l.53,5.41Z"/></svg>