<?xml version="1.0" encoding="UTF-8"?><svg id="a" xmlns="http://www.w3.org/2000/svg" viewBox="0 0 44.5 44.5"><defs><style>.b{fill:none;stroke:#8980f5;stroke-linecap:round;stroke-linejoin:round;stroke-width:2px;}</style></defs><path class="b" d="M8.17,.99h28.16c4.27,0,7.72,3.45,7.72,7.72v27.07c0,4.27-3.45,7.72-7.72,7.72H8.17c-4.27,0-7.72-3.45-7.72-7.72V8.71C.45,4.44,3.9,.99,8.17,.99Z"/><path class="b" d="M21.53,26.43h-6.76l-1.38,4.27c-.04,.16-.18,.27-.35,.25h-3.42c-.2,0-.25-.11-.2-.33L15.27,13.78c.05-.18,.11-.38,.18-.6,.07-.38,.11-.78,.11-1.18-.02-.09,.05-.18,.15-.2h4.71c.15,0,.22,.05,.24,.15l6.63,18.72c.05,.2,0,.29-.18,.29h-3.8c-.13,.02-.25-.07-.29-.2l-1.49-4.32Zm-5.71-3.69h4.62c-.11-.38-.25-.84-.42-1.31-.16-.49-.33-1.02-.49-1.56-.18-.56-.35-1.11-.53-1.67s-.35-1.09-.49-1.62c-.15-.51-.27-.98-.4-1.42h-.04c-.16,.78-.36,1.56-.62,2.34-.27,.87-.55,1.78-.84,2.69-.25,.93-.53,1.78-.8,2.54h0Zm15.52-7.76c-.6,.02-1.18-.22-1.62-.64-.42-.45-.64-1.05-.62-1.67-.02-.62,.22-1.2,.65-1.62s1.02-.64,1.62-.64c.71,0,1.25,.22,1.65,.64,.4,.44,.62,1.02,.6,1.62,.02,.62-.2,1.22-.64,1.67-.42,.44-1.04,.67-1.65,.64h0Zm-2.04,15.77v-13.99c0-.18,.07-.25,.24-.25h3.6c.16,0,.24,.09,.24,.25v13.99c0,.2-.07,.29-.24,.29h-3.56c-.18,0-.27-.11-.27-.29Z"/></svg>