<svg width="25" height="27" viewBox="0 0 25 27" fill="none" xmlns="http://www.w3.org/2000/svg">
<path fill-rule="evenodd" clip-rule="evenodd" d="M13.4315 2.5942C16.2364 0.735378 19.5769 0 21.8334 0C22.3321 0 22.7545 0.367425 22.8237 0.861299C22.8929 1.35517 22.5876 1.82452 22.1081 1.96152C20.2205 2.50084 18.9629 4.448 18.1994 7.33228C17.5403 9.82211 17.327 12.7352 17.2858 15.2778H23.2223C23.6389 15.2778 24.0118 15.5361 24.1584 15.9261C24.3049 16.316 24.1943 16.756 23.8808 17.0304L12.7697 26.7526C12.3926 27.0825 11.8297 27.0825 11.4527 26.7526L0.341541 17.0304C0.0280105 16.756 -0.08259 16.316 0.0639424 15.9261C0.210475 15.5361 0.583436 15.2778 1.00005 15.2778H7.87061C8.4229 15.2778 8.87061 15.7255 8.87061 16.2778C8.87061 16.8301 8.4229 17.2778 7.87061 17.2778H3.66149L12.1112 24.6712L20.5608 17.2778H16.2778C16.0126 17.2778 15.7583 17.1724 15.5707 16.9849C15.3832 16.7973 15.2778 16.543 15.2778 16.2778C15.2778 13.4767 15.4508 9.89989 16.266 6.8205C16.6665 5.30727 17.2483 3.82031 18.1036 2.60655C16.9083 2.97077 15.6679 3.51142 14.5364 4.26133C12.1372 5.85132 10.2595 8.34972 10.2595 12.1458C10.2595 12.6981 9.81179 13.1458 9.2595 13.1458C8.70722 13.1458 8.2595 12.6981 8.2595 12.1458C8.2595 7.55487 10.5854 4.48036 13.4315 2.5942Z" fill="#0D0D49"/>
</svg>
