<svg width="24" height="24" viewBox="0 0 24 24" fill="none" xmlns="http://www.w3.org/2000/svg">
<path fill-rule="evenodd" clip-rule="evenodd" d="M5.32315 0.547072C5.57105 0.059143 6.16513 -0.138864 6.65619 0.102769C7.30423 0.421644 8.08097 0.825445 8.81037 1.27832C9.30455 1.58514 9.80803 1.93322 10.2422 2.31263C11.5329 1.80541 13.0034 1.56253 14.3913 1.56253C15.6503 1.56253 16.9313 1.76292 17.9931 2.21875C18.3623 1.83285 18.7981 1.505 19.1757 1.24459C19.6185 0.939205 20.1253 0.63556 20.507 0.40685C20.675 0.306238 20.8187 0.220127 20.9221 0.154749C21.3191 -0.0962204 21.8373 -0.0370586 22.1675 0.296943C22.598 0.732317 22.7374 1.34444 22.7951 1.79769C22.8584 2.29543 22.8503 2.85091 22.8144 3.37786C22.7528 4.28201 22.5985 5.23012 22.4919 5.86948C23.0974 7.28682 23.5888 9.17352 22.9515 11.027C22.3593 12.7492 20.8864 14.1956 18.2542 15.1968C19.3645 16.4447 20.617 18.2384 21.4724 20.1492C21.9486 21.2128 21.6663 22.2773 20.9744 22.978C20.3078 23.6531 19.2899 23.9741 18.2612 23.7704C16.8623 23.4934 15.2282 23.25 13.8356 23.25C12.2153 23.25 9.93705 23.5774 8.08526 23.9032C7.05732 24.084 6.05909 23.7385 5.43172 23.0311C4.78065 22.2969 4.58858 21.2291 5.11289 20.2159C5.63067 19.2154 6.32178 18.1461 7.14112 17.3069C6.7669 17.1949 6.18911 17.162 5.3546 17.5371C4.48619 17.9275 3.64327 18.0315 2.87168 17.8742C2.10345 17.7176 1.47439 17.3157 1.00908 16.807C0.121366 15.8367 -0.274575 14.343 0.204255 13.1323C0.407368 12.6187 0.988363 12.367 1.50194 12.5701C2.01552 12.7732 2.2672 13.3542 2.06409 13.8678C1.91627 14.2416 2.01558 14.9442 2.48476 15.4571C2.69789 15.6901 2.9627 15.8516 3.27121 15.9145C3.57636 15.9767 3.99305 15.9564 4.53461 15.7129C5.88213 15.1072 7.02647 15.1332 7.9208 15.4593C8.78155 15.7731 9.31755 16.3297 9.55828 16.6544C9.72219 16.8754 9.78777 17.1542 9.73958 17.4252C9.69138 17.6961 9.53368 17.9352 9.3036 18.0861C8.44295 18.6508 7.56428 19.8305 6.88914 21.1351L6.00102 20.6755L6.88914 21.1351C6.81204 21.2841 6.80487 21.3942 6.81455 21.468C6.82472 21.5456 6.8594 21.6266 6.92806 21.704C7.06791 21.8617 7.35467 22.001 7.7388 21.9334C9.59644 21.6066 12.0252 21.25 13.8356 21.25C15.4222 21.25 17.2056 21.5225 18.6497 21.8085C19.0427 21.8864 19.3732 21.7531 19.5513 21.5727C19.7042 21.4179 19.7631 21.2258 19.647 20.9665C18.5561 18.5297 16.7478 16.3374 15.7468 15.5274C15.4545 15.2909 15.3196 14.9104 15.3976 14.5425C15.4757 14.1747 15.7534 13.8817 16.1166 13.7842C19.4395 12.8923 20.6572 11.5485 21.0602 10.3766C21.4863 9.13753 21.1414 7.71844 20.5467 6.41518C20.4642 6.23451 20.4374 6.03338 20.4697 5.83743C20.4807 5.77104 20.4923 5.70102 20.5045 5.62782C20.6124 4.98061 20.7617 4.08428 20.8191 3.24192C20.8362 2.98989 20.8441 2.75522 20.8416 2.54348C20.6694 2.65125 20.4924 2.76603 20.3111 2.89103C19.6847 3.32303 19.3024 3.69053 19.1775 3.94319C19.0506 4.19987 18.8198 4.38985 18.5435 4.46499C18.2672 4.54012 17.9719 4.49321 17.7325 4.33614C17.0052 3.85893 15.7956 3.56253 14.3913 3.56253C13.005 3.56253 11.574 3.85238 10.4666 4.39728C10.0612 4.5968 9.57231 4.4996 9.274 4.16017C8.95427 3.79638 8.41891 3.38941 7.75541 2.97745C7.50291 2.82068 7.24115 2.6688 6.97893 2.52372C6.9917 2.83292 7.03104 3.16931 7.09099 3.51049C7.17068 3.964 7.2826 4.40225 7.40046 4.76363C7.5254 5.14674 7.63451 5.37353 7.68471 5.44968C7.97731 5.89359 7.8714 6.48885 7.44364 6.80459C6.48402 7.5129 5.87804 8.95962 6.29687 10.314C6.69391 11.5978 8.15156 13.1665 12.0801 13.7613C12.6262 13.844 13.0018 14.3537 12.9191 14.8997C12.8364 15.4458 12.3268 15.8214 11.7807 15.7388C7.45328 15.0836 5.1005 13.2147 4.38616 10.9049C3.79092 8.98011 4.43245 7.00819 5.62806 5.75127C5.58235 5.63066 5.53926 5.50714 5.49902 5.38376C5.35157 4.93165 5.21697 4.4018 5.12117 3.85663C5.0258 3.31391 4.96465 2.73206 4.9757 2.18159C4.98639 1.64931 5.06563 1.05395 5.32315 0.547072Z" fill="#0D0D49"/>
</svg>
