<?xml version="1.0" encoding="UTF-8"?><svg id="a" xmlns="http://www.w3.org/2000/svg" viewBox="0 0 45.6 44.5"><defs><style>.b{fill:#8980f5;}</style></defs><path class="b" d="M36.9,44.5H8.7C3.9,44.5,0,40.6,0,35.8V8.7C-.05,6.46,.81,4.3,2.42,2.64,4.09,.94,6.31,0,8.7,0h28.2c4.8,0,8.7,3.9,8.7,8.7v27.1c0,4.8-3.9,8.7-8.7,8.7ZM8.7,2c-1.84,0-3.57,.72-4.85,2.04-1.24,1.26-1.89,2.91-1.85,4.64v27.12c0,3.69,3,6.7,6.7,6.7h28.2c3.69,0,6.7-3.01,6.7-6.7V8.7c0-3.69-3.01-6.7-6.7-6.7H8.7Z"/><path class="b" d="M33.6,32.1h-3.5c-.75,0-1.3-.55-1.3-1.3v-14c0-.72,.52-1.29,1.19-1.3-.18-.11-.35-.24-.5-.39-.03-.03-.05-.05-.07-.08-.53-.66-.82-1.49-.82-2.32,0-.96,.37-1.79,1.03-2.35,.57-.54,1.39-.85,2.27-.85,.99,0,1.82,.31,2.41,.89,.57,.57,.89,1.41,.89,2.31,0,.84-.29,1.67-.82,2.33-.05,.06-.1,.11-.16,.16-.15,.12-.32,.23-.49,.33,.32,.04,1.07,.24,1.07,1.29v14c0,.73-.53,1.3-1.2,1.3Zm-2.8-2h2v-12.6h-2v12.6Zm.14-16.37c.42,.36,1.4,.32,1.95-.04,.2-.29,.31-.63,.31-.98s-.12-.7-.31-.89c-.2-.2-.55-.31-.99-.31-.36,0-.7,.12-.89,.31-.03,.03-.05,.05-.08,.07-.27,.21-.33,.56-.33,.82,0,.37,.12,.73,.34,1.03Zm-3.44,18.27h-3.8c-.54,0-1.14-.38-1.27-.96l-1.16-3.64h-5.34l-1.14,3.51c-.11,.66-.71,1.09-1.28,1.09h-3.4c-.46,0-.85-.2-1.07-.56-.2-.33-.23-.73-.06-1.12L14.86,13.57s.03-.08,.05-.11c0-.03,.02-.06,.02-.1,.03-.1,.06-.23,.12-.38,.05-.26,.05-.55,.05-.88,0-.46,.27-.79,.39-.91,.19-.19,.44-.29,.71-.29h4.7c.46,0,.79,.27,.91,.39,.11,.11,.19,.23,.24,.37l6.58,18.66c.17,.38,.15,.79-.06,1.12-.22,.36-.61,.56-1.07,.56Zm-3.1-1.2h0Zm-.21-.8h2.2l-6.04-17.1h-3.28c-.02,.21-.05,.42-.1,.64-.02,.07-.04,.14-.08,.21,0,.03-.02,.06-.02,.09-.03,.11-.07,.27-.14,.44l-5.52,15.72h1.77l1.27-3.91c.13-.41,.52-.69,.95-.69h6.8c.44,0,.82,.28,.95,.7l1.24,3.9Zm-3.29-6.2h-4.6c-.33,0-.63-.16-.82-.43-.19-.27-.23-.61-.11-.92,.3-.79,.59-1.68,.89-2.57,.15-.44,.27-.87,.39-1.3,.13-.47,.26-.93,.42-1.4,.18-.64,.38-1.43,.58-2.21,.11-.44,.51-.76,.97-.76h0c.46,0,.86,.31,.97,.75,.04,.14,.09,.3,.14,.47,.09,.28,.18,.58,.25,.88,.11,.29,.2,.59,.29,.9,.06,.21,.12,.43,.2,.67,.11,.32,.19,.61,.26,.9,.07,.26,.14,.52,.24,.8,.09,.26,.16,.51,.22,.74,.08,.28,.15,.54,.26,.8,.02,.06,.04,.12,.05,.18,.05,.24,.12,.45,.2,.64,.07,.21,.14,.41,.19,.61,.07,.3,0,.61-.18,.86-.19,.24-.48,.38-.79,.38Zm-3.18-2h1.82c-.11-.31-.2-.61-.29-.93-.06-.21-.12-.43-.2-.66-.11-.32-.19-.61-.27-.91-.04-.16-.09-.32-.14-.49-.03,.1-.06,.2-.08,.3-.13,.47-.26,.93-.42,1.4-.14,.43-.29,.86-.43,1.28Z"/></svg>