<?xml version="1.0" encoding="UTF-8"?><svg id="a" xmlns="http://www.w3.org/2000/svg" viewBox="0 0 45.6 44.5"><defs><style>.b{fill:#8980f5;}</style></defs><path class="b" d="M36.9,44.5H8.7c-4.8,0-8.7-3.9-8.7-8.7V8.7C0,3.9,3.9,0,8.7,0h28.2c4.8,0,8.7,3.9,8.7,8.7v27.1c0,4.8-3.9,8.7-8.7,8.7ZM8.7,2c-3.69,0-6.7,3.01-6.7,6.7v27.1c0,3.69,3.01,6.7,6.7,6.7h28.2c3.69,0,6.7-3.01,6.7-6.7V8.7c0-3.69-3.01-6.7-6.7-6.7H8.7Z"/><path class="b" d="M32.3,33.8c-1.41,0-2.93-.31-4.29-.88-1.35-.61-2.5-1.68-3.19-2.94-.73-1.15-1.12-2.71-1.12-4.58,0-1.62,.41-3.17,1.16-4.34,.8-1.38,1.95-2.48,3.3-3.16,1.5-.81,3.16-1.21,5.05-1.21v-4.7c0-.65,.55-1.2,1.2-1.2h3.7c.47,0,.79,.28,.91,.39,.19,.19,.29,.44,.29,.71V30.3c0,.15,.02,.28,.04,.41,.03,.22,.06,.44,.06,.69,0,.51-.33,.85-.49,1.01-.09,.09-.19,.16-.3,.21-.97,.43-2.05,.76-3.23,.97l-.35,.04c-.91,.09-1.77,.18-2.73,.18Zm.9-15.1c-1.55,0-2.9,.32-4.13,.98-1.02,.51-1.88,1.35-2.51,2.42-.56,.89-.86,2.05-.86,3.3,0,1.48,.28,2.68,.84,3.56,.52,.95,1.33,1.7,2.27,2.13,1.07,.45,2.35,.71,3.49,.71,.86,0,1.63-.08,2.53-.17l.27-.03c.77-.14,1.55-.36,2.25-.64-.03-.21-.06-.43-.06-.67V12.8h-2.1v4.9c0,.55-.45,1-1,1h-1Zm-9.04,14.63c-.09,0-.19-.01-.28-.03h-4.08c-.36,0-1.12,0-1.5-.75-.19-.39-.39-.75-.58-1.11-.21-.39-.41-.77-.62-1.18-.38-.66-.79-1.47-1.18-2.25-.13-.27-.27-.51-.4-.75-.12,.23-.24,.45-.36,.66-.4,.79-.8,1.6-1.2,2.3-.37,.74-.77,1.46-1.32,2.33-.33,.67-1,.67-1.25,.67H7.4c-.65,0-1.1-.45-1.1-1.1v-.2c0-.18,.05-.37,.15-.52l5.39-8.79L6.69,13.9c-.12-.14-.27-.37-.27-.7,0-.28,.11-.49,.21-.63,.16-.3,.48-.57,1.06-.57h4.4c.23,0,.66,.07,.96,.55,.08,.09,.14,.19,.18,.3,.29,.77,.66,1.49,1.08,2.07,.03,.04,.06,.09,.08,.13,.19,.38,.4,.73,.61,1.09,.24,.4,.47,.79,.69,1.21,.1,.2,.2,.39,.29,.57,.11-.21,.23-.42,.34-.62,.18-.36,.38-.74,.58-1.12,.2-.37,.39-.73,.59-1.13,.2-.41,.41-.78,.61-1.16,.18-.34,.36-.68,.54-1.03,.03-.1,.08-.2,.15-.29,.12-.25,.34-.44,.61-.52,.24-.1,.49-.11,.72-.04h3.57c.78,0,1.09,.49,1.17,.88,.1,.39,.21,.88-.13,1.32-.03,.04-.07,.08-.1,.11l-5.07,8.3,5.48,8.98c.04,.07,.08,.15,.1,.23,.15,.34,.11,.71-.1,1.02-.08,.13-.18,.25-.3,.33-.16,.11-.38,.17-.6,.17Zm-.82-.7s.03,.05,.04,.08c-.01-.02-.03-.05-.04-.08Zm-3.24-.98h0Zm-9.14-.17s-.03,.05-.04,.07l.04-.07Zm8.97-.18h2.62l-4.99-8.18c-.2-.32-.2-.72,0-1.04l4.94-8.08h-2.17c-.15,.28-.29,.56-.44,.83-.19,.36-.39,.73-.58,1.12-.2,.41-.41,.79-.61,1.17-.2,.37-.39,.73-.59,1.13-.42,.73-.82,1.53-1.2,2.3-.17,.34-.52,.55-.89,.55h0c-.38,0-.72-.21-.89-.55-.2-.39-.39-.76-.59-1.13-.2-.38-.41-.77-.61-1.17-.19-.38-.4-.73-.61-1.08-.23-.38-.45-.75-.65-1.15-.42-.6-.79-1.27-1.1-2.02h-2.47l4.79,8.09c.19,.32,.19,.72,0,1.03l-4.95,8.08h2.22c.44-.73,.77-1.31,1.08-1.95,.4-.71,.79-1.48,1.17-2.24,0-.02,.05-.1,.06-.11,.38-.66,.77-1.45,1.15-2.21,.17-.34,.53-.58,.91-.58h0c.38,0,.74,.19,.91,.53,.19,.39,.41,.77,.63,1.16,.23,.41,.46,.83,.67,1.24,.4,.8,.79,1.59,1.17,2.25,.22,.44,.42,.81,.62,1.19,.14,.27,.29,.53,.43,.81Zm2.98-18.2h0Zm0,0h0Zm-9.89-.61h0Zm20.63,17.75c-.12,0-.24-.01-.37-.04h-.67c-.54,0-1.16,0-1.81-.25-.54-.15-1.18-.53-1.59-.94-.03-.03-.07-.07-.09-.11-.32-.43-.68-.91-.93-1.53-.24-.73-.37-1.53-.37-2.27,0-1.11,.27-2.1,.77-2.85,.64-.8,1.24-1.32,1.88-1.64,.94-.54,1.91-.61,2.55-.61h.6c.26,0,.46,.07,.57,.1h0c.52,.04,.93,.47,.93,1v8c0,.38-.21,.73-.55,.9l-.45-.9,.44,.9c-.18,.09-.49,.24-.9,.24Zm.46-1.14h0Zm-3.45-1.47c.19,.17,.5,.35,.69,.4,.04,.01,.08,.02,.13,.04,.32,.13,.7,.13,1.13,.13h.5v-6.2h-.1c-.67,0-1.15,.11-1.6,.37-.43,.22-.82,.56-1.22,1.06-.23,.35-.38,.96-.38,1.67,0,.53,.09,1.12,.25,1.58,.12,.3,.34,.6,.6,.95Z"/></svg>