<svg width="20" height="21" viewBox="0 0 20 21" fill="none" xmlns="http://www.w3.org/2000/svg">
<path fill-rule="evenodd" clip-rule="evenodd" d="M9.70153 6.76378H9.7829C10.8167 6.76378 11.811 7.15777 12.5746 7.87381L12.5779 7.8769C12.8437 8.13774 12.8732 8.57002 12.617 8.86255L12.6137 8.86621C12.3614 9.14055 11.9436 9.17101 11.6605 8.90691C11.1414 8.42631 10.4706 8.15861 9.77334 8.15861C8.22703 8.15861 6.9755 9.46068 6.9755 11.0482C6.9755 12.2473 7.70846 13.3378 8.79938 13.7629C9.11348 13.8833 9.44418 13.9476 9.77334 13.9476C11.3196 13.9476 12.5712 12.6456 12.5712 11.0581C12.5712 10.6689 12.8699 10.3607 13.2462 10.3607C13.6224 10.3607 13.9211 10.6689 13.9211 11.0581C13.9211 13.4236 12.063 15.3425 9.77334 15.3425C9.27088 15.3425 8.78865 15.249 8.3276 15.073C6.7104 14.4505 5.62554 12.8328 5.62554 11.0581C5.62554 8.72091 7.4394 6.81975 9.69116 6.77449L9.70153 6.76378Z" fill="#F5F5F5"/>
<path d="M10.024 16.2872C10.2821 16.2872 10.4849 16.4983 10.4849 16.7669V20.3169C10.4849 20.5856 10.2821 20.7967 10.024 20.7967C9.76593 20.7967 9.56313 20.5856 9.56313 20.3169V16.7669C9.56313 16.4983 9.76593 16.2872 10.024 16.2872Z" fill="#F5F5F5"/>
<path fill-rule="evenodd" clip-rule="evenodd" d="M10.0239 16.0838C10.3918 16.0838 10.6815 16.3872 10.6815 16.7669V20.3169C10.6815 20.6966 10.3918 21 10.0239 21C9.65603 21 9.3664 20.6966 9.3664 20.3169V16.7669C9.3664 16.3872 9.65603 16.0838 10.0239 16.0838ZM10.4849 16.7669C10.4849 16.4983 10.2821 16.2872 10.024 16.2872C9.76593 16.2872 9.56313 16.4983 9.56313 16.7669V20.3169C9.56313 20.5856 9.76593 20.7967 10.024 20.7967C10.2821 20.7967 10.4849 20.5856 10.4849 20.3169V16.7669Z" fill="#F5F5F5"/>
<path d="M10.0238 0.462606C10.2819 0.462606 10.4847 0.673689 10.4847 0.942339V4.49236C10.4847 4.76101 10.2819 4.9721 10.0238 4.9721C9.76568 4.9721 9.56288 4.76101 9.56288 4.49236V0.942339C9.56288 0.673689 9.76568 0.462606 10.0238 0.462606Z" fill="#F5F5F5"/>
<path fill-rule="evenodd" clip-rule="evenodd" d="M10.0239 0.259254C10.3918 0.259254 10.6815 0.56262 10.6815 0.942329V4.49235C10.6815 4.87206 10.3918 5.17543 10.0239 5.17543C9.65603 5.17543 9.3664 4.87206 9.3664 4.49235V0.942329C9.3664 0.562619 9.65603 0.259254 10.0239 0.259254ZM10.4847 0.942339C10.4847 0.673689 10.2819 0.462606 10.0238 0.462606C9.76568 0.462606 9.56288 0.673689 9.56288 0.942339V4.49236C9.56288 4.76101 9.76568 4.9721 10.0238 4.9721C10.2819 4.9721 10.4847 4.76101 10.4847 4.49236V0.942339Z" fill="#F5F5F5"/>
<path d="M0.657417 10.5734H4.06813C4.32624 10.5734 4.52904 10.7845 4.52904 11.0531C4.52904 11.3218 4.32624 11.5329 4.06813 11.5329H0.657417C0.399309 11.5329 0.196509 11.3218 0.196509 11.0531C0.196509 10.7845 0.399309 10.5734 0.657417 10.5734Z" fill="#F5F5F5"/>
<path fill-rule="evenodd" clip-rule="evenodd" d="M0.657538 10.3701H4.06826C4.43616 10.3701 4.72579 10.6734 4.72579 11.0531C4.72579 11.4328 4.43616 11.7362 4.06825 11.7362H0.657538C0.289635 11.7362 -3.20097e-08 11.4328 0 11.0531C3.20097e-08 10.6734 0.289635 10.3701 0.657538 10.3701ZM4.06813 10.5734H0.657417C0.399309 10.5734 0.196509 10.7845 0.196509 11.0531C0.196509 11.3218 0.399309 11.5329 0.657417 11.5329H4.06813C4.32624 11.5329 4.52904 11.3218 4.52904 11.0531C4.52904 10.7845 4.32624 10.5734 4.06813 10.5734Z" fill="#F5F5F5"/>
<path d="M15.9316 10.5734L19.3423 10.5734C19.6004 10.5734 19.8032 10.7845 19.8032 11.0532C19.8032 11.3218 19.6004 11.5329 19.3423 11.5329H15.9316C15.6735 11.5329 15.4707 11.3218 15.4707 11.0532C15.4707 10.7845 15.6735 10.5734 15.9316 10.5734Z" fill="#F5F5F5"/>
<path fill-rule="evenodd" clip-rule="evenodd" d="M15.9317 10.3701L19.3425 10.3701C19.7104 10.3701 20 10.6734 20 11.0532C20 11.4329 19.7104 11.7362 19.3425 11.7362L15.9317 11.7362C15.5638 11.7362 15.2742 11.4329 15.2742 11.0532C15.2742 10.6734 15.5638 10.3701 15.9317 10.3701ZM19.3423 10.5734L15.9316 10.5734C15.6735 10.5734 15.4707 10.7845 15.4707 11.0532C15.4707 11.3218 15.6735 11.5329 15.9316 11.5329H19.3423C19.6004 11.5329 19.8032 11.3218 19.8032 11.0532C19.8032 10.7845 19.6004 10.5734 19.3423 10.5734Z" fill="#F5F5F5"/>
<path d="M5.36159 14.7993C5.48143 14.7993 5.60126 14.8473 5.68423 14.9433C5.86859 15.1352 5.86859 15.4326 5.68423 15.6245L3.26907 18.1383C3.08471 18.3302 2.79894 18.3302 2.61458 18.1383C2.43022 17.9464 2.43022 17.649 2.61458 17.4571L5.02974 14.9433C5.12192 14.8473 5.24176 14.7993 5.35237 14.7993H5.36159Z" fill="#F5F5F5"/>
<path fill-rule="evenodd" clip-rule="evenodd" d="M5.68423 14.9433C5.86859 15.1352 5.86859 15.4326 5.68423 15.6245L3.26907 18.1383C3.08471 18.3302 2.79894 18.3302 2.61458 18.1383C2.43022 17.9464 2.43022 17.649 2.61458 17.4571L5.02974 14.9433C5.12192 14.8473 5.24176 14.7993 5.35237 14.7993H5.36159C5.48143 14.7993 5.60126 14.8473 5.68423 14.9433ZM5.3615 14.596C5.52878 14.596 5.70276 14.6623 5.82719 14.8037C6.08417 15.075 6.08298 15.4978 5.82362 15.7678L3.40846 18.2816C3.14721 18.5535 2.73625 18.5535 2.475 18.2816C2.21445 18.0104 2.21445 17.5849 2.475 17.3137L4.89016 14.7999C5.01869 14.6662 5.18851 14.596 5.35228 14.596H5.3615Z" fill="#F5F5F5"/>
<path d="M16.9112 3.48423C17.031 3.48423 17.1508 3.53221 17.2338 3.62815C17.4182 3.82005 17.4182 4.11748 17.2338 4.30938L14.8186 6.82318C14.6343 7.01507 14.3485 7.01507 14.1641 6.82318C13.9798 6.63128 13.9798 6.33385 14.1641 6.14196L16.5793 3.62815C16.6715 3.53221 16.7913 3.48423 16.9019 3.48423H16.9112Z" fill="#F5F5F5"/>
<path fill-rule="evenodd" clip-rule="evenodd" d="M17.2338 3.62815C17.4182 3.82005 17.4182 4.11748 17.2338 4.30938L14.8186 6.82318C14.6343 7.01507 14.3485 7.01507 14.1641 6.82318C13.9798 6.63128 13.9798 6.33385 14.1641 6.14196L16.5793 3.62815C16.6715 3.53221 16.7913 3.48423 16.9019 3.48423H16.9112C17.031 3.48423 17.1508 3.53221 17.2338 3.62815ZM16.9111 3.28088C17.0783 3.28088 17.2523 3.34719 17.3767 3.48856C17.6337 3.75991 17.6325 4.18273 17.3732 4.45268L14.958 6.96648C14.6968 7.23841 14.2858 7.23841 14.0246 6.96648C13.764 6.69529 13.764 6.26982 14.0246 5.99863L16.4397 3.48483C16.5682 3.35104 16.7381 3.28088 16.9018 3.28088H16.9111Z" fill="#F5F5F5"/>
<path fill-rule="evenodd" clip-rule="evenodd" d="M2.475 4.45268L4.89015 6.96648C5.15141 7.23841 5.56236 7.23841 5.82362 6.96648C6.08417 6.69529 6.08417 6.26982 5.82362 5.99863L3.41174 3.48824C3.28734 3.34709 3.1135 3.28088 2.94634 3.28088H2.93712C2.77334 3.28088 2.60353 3.35104 2.475 3.48483C2.21444 3.75602 2.21444 4.18149 2.475 4.45268Z" fill="#F5F5F5"/>
<path d="M14.4868 14.7993C14.6066 14.7993 14.7264 14.8473 14.8094 14.9433L17.2338 17.4571C17.4182 17.649 17.4182 17.9464 17.2338 18.1383C17.0494 18.3302 16.7637 18.3302 16.5793 18.1383L14.1641 15.6245C13.9798 15.4326 13.9798 15.1352 14.1641 14.9433C14.2563 14.8473 14.3762 14.7993 14.4868 14.7993Z" fill="#F5F5F5"/>
<path fill-rule="evenodd" clip-rule="evenodd" d="M17.3732 17.3137C17.6337 17.5849 17.6337 18.0104 17.3732 18.2816C17.1119 18.5535 16.701 18.5535 16.4397 18.2816L14.0246 15.7678C13.764 15.4966 13.764 15.0711 14.0246 14.7999C14.1531 14.6662 14.3229 14.596 14.4867 14.596C14.6538 14.596 14.8276 14.6622 14.9519 14.8032L17.3732 17.3137ZM14.8094 14.9433C14.7264 14.8473 14.6066 14.7993 14.4868 14.7993C14.3762 14.7993 14.2563 14.8473 14.1641 14.9433C13.9798 15.1352 13.9798 15.4326 14.1641 15.6245L16.5793 18.1383C16.7637 18.3302 17.0494 18.3302 17.2338 18.1383C17.4182 17.9464 17.4182 17.649 17.2338 17.4571L14.8094 14.9433Z" fill="#F5F5F5"/>
</svg>
