<?xml version="1.0" encoding="UTF-8"?><svg id="a" xmlns="http://www.w3.org/2000/svg" viewBox="0 0 44.5 44.5"><defs><style>.b{fill:#8980f5;}</style></defs><path class="b" d="M44.5,44.5H0V0H44.5V44.5ZM2,42.5H42.5V2H2V42.5Zm31.59-1.53c-2.5,0-4.99-.86-6.49-2.36-.74-.74-1.27-1.27-1.64-2.39l-.26-.78,.72-.41q1.58-.89,3.16-1.88l.81-.51,.54,.78c.88,1.27,1.48,1.76,2.43,1.98,1.04,.09,1.89-.07,2.22-.44,.06-.07,.26-.28,.14-.88-.13-.44-1.39-.97-2.5-1.44-1.13-.48-2.41-1.02-3.52-1.85-1.36-.87-2.32-2.47-2.57-4.35-.25-1.91,.27-3.74,1.43-5.02,.85-.98,2.17-1.76,3.5-2.1l1.54-.23c2.59,0,4.41,.68,5.74,2.12,.31,.3,.69,.68,1.16,1.63l.41,.82-.78,.48q-1.28,.79-3.07,1.98l-.94,.63-.51-1.01c-.28-.57-.69-.97-1.08-1.09-.42-.11-.88-.09-1.16,.08-.16,.09-.25,.22-.29,.4-.04,.11-.07,.27,.06,.59,.16,.4,1.04,.77,1.82,1.09,.29,.12,.59,.24,.87,.38,3.63,1.43,5.46,3.24,5.87,5.85,.26,1.46,.08,2.78-.26,3.45-.66,2.07-2.38,3.55-4.85,4.18-.81,.2-1.65,.3-2.49,.3Zm-5.88-4.66c.19,.26,.43,.51,.8,.88,1.52,1.52,4.56,2.18,7.08,1.54,1.04-.26,2.88-1,3.46-2.92l.13-.3c.07-.24,.25-.98,.05-2.14-.21-1.33-.93-2.86-4.68-4.34-.31-.14-.59-.25-.85-.37-1.2-.5-2.44-1.01-2.91-2.19-.34-.84-.25-1.49-.12-1.89,.16-.64,.58-1.21,1.2-1.57,.75-.44,1.74-.54,2.71-.28,.65,.19,1.24,.59,1.72,1.17,.68-.45,.99-.66,1.44-.94-.11-.14-.22-.24-.34-.36-.97-1.05-2.22-1.5-4.22-1.51l-1.22,.19c-.86,.22-1.79,.78-2.4,1.47-.77,.85-1.12,2.12-.94,3.43,.17,1.27,.82,2.38,1.73,2.97,.97,.73,2.08,1.2,3.16,1.65,1.67,.71,3.24,1.37,3.66,2.81,.27,1.41-.18,2.24-.61,2.7-.79,.87-2.2,1.25-3.95,1.07l-.11-.02c-1.39-.3-2.32-1.02-3.14-2.04-.67,.42-.98,.6-1.64,.98Zm-9.46,4.63c-1.53,0-2.97-.37-4.16-1.08-1.12-.67-2.08-1.79-2.7-3.14l-.36-.8,4.88-3.05,.69,1.38c.32,.56,.57,.83,.94,1,.31,.08,1.28,.28,1.57-.3l.06-.11c.12-.28,.08-1.58,.06-2.53-.01-.54-.03-1.12-.03-1.72v-11.3h6v11.9c0,.38,0,.74,0,1.09,.03,2.03,.05,3.79-.82,5.36-.68,1.45-2,2.49-3.82,3.01-.78,.19-1.57,.28-2.33,.28Zm-4.62-4.29c.41,.63,.93,1.16,1.49,1.49,1.32,.79,3.17,1.01,4.95,.58,.83-.24,1.99-.78,2.52-1.95l.04-.07c.63-1.11,.61-2.56,.58-4.39,0-.36,0-.74,0-1.12v-9.9h-2v9.3c0,.58,.01,1.14,.03,1.67,.05,1.91,.05,2.96-.36,3.63-.8,1.53-2.55,1.66-3.94,1.27l-.12-.04c-.79-.34-1.28-.86-1.66-1.42l-1.52,.95Z"/></svg>