<?xml version="1.0" encoding="UTF-8"?><svg id="a" xmlns="http://www.w3.org/2000/svg" viewBox="0 0 44.5 44.5"><defs><style>.b{fill:#8980f5;}</style></defs><path class="b" d="M46.73,16.32s0-.09,0-.13c0-.05,0-.09,0-.14,0-.04-.02-.09-.03-.13-.01-.05-.02-.1-.04-.14,0-.01,0-.02-.01-.03-.02-.03-.04-.06-.06-.09-.02-.03-.03-.06-.05-.09L36.3,1.79s-.04-.03-.05-.05c-.03-.03-.06-.06-.09-.08-.05-.05-.11-.09-.17-.12-.04-.02-.08-.04-.12-.06-.06-.03-.13-.04-.19-.06-.03,0-.05-.02-.08-.02L22.35,0s-.07,0-.11,0c-.04,0-.07,0-.11,0L8.9,1.4s-.05,.02-.08,.02c-.07,.01-.13,.03-.19,.06-.04,.02-.09,.04-.13,.06-.05,.03-.1,.07-.15,.11-.04,.03-.07,.07-.11,.1-.01,.02-.03,.03-.04,.04L-2.05,15.56s-.03,.06-.05,.09c-.02,.03-.04,.06-.06,.09,0,.01,0,.02-.01,.03-.02,.05-.03,.09-.04,.14-.01,.04-.02,.08-.03,.13,0,.05,0,.09,0,.14,0,.05,0,.09,0,.13,0,.04,.02,.09,.04,.13,.01,.05,.02,.09,.05,.14,0,0,0,.01,0,.02,.02,.04,.05,.07,.07,.11,.02,.03,.04,.07,.06,.1l23.49,27.36h.01c.05,.07,.12,.12,.18,.17,0,0,0,0,.01,.01h0s.07,.04,.1,.06c.02,.01,.05,.02,.07,.03,.12,.05,.24,.08,.37,.08h0s.02,0,.03,0c.08,0,.16-.01,.24-.04,.03,0,.05-.03,.08-.04h0s.06-.03,.09-.04c.03-.01,.06-.03,.08-.04,0,0,.01,0,.02,0,.02-.01,.03-.03,.04-.04,.05-.04,.1-.07,.14-.12,0,0,.02,0,.02-.02l23.49-27.36s.04-.06,.06-.1c.02-.04,.05-.07,.07-.11,0,0,0-.01,0-.02,.02-.04,.03-.09,.05-.14,.01-.04,.03-.09,.04-.13Zm-2.98-1.16h-6.58l-.51-9.51,7.08,9.51Zm-9.81,0H10.55l4.57-4.96,7.12-7.72,7.12,7.72,4.57,4.96Zm-24.04,2h24.69l-12.34,24.16L9.91,17.15ZM34.54,3.3l.54,10.14L24.78,2.27l9.75,1.03ZM9.42,13.43l.54-10.14,9.75-1.03L9.42,13.43Zm-1.59-7.79l-.51,9.51H.75L7.83,5.64Zm-.17,11.51l9.88,19.34L.93,17.15H7.66Zm19.3,19.34l9.88-19.34h6.73l-16.61,19.34Z"/></svg>