<?xml version="1.0" encoding="UTF-8"?><svg id="a" xmlns="http://www.w3.org/2000/svg" viewBox="0 0 70.9 42.6"><defs><style>.b{fill:#8980f5;}</style></defs><path class="b" d="M35.4,0V2c7.9,0,11.5,3.6,14.9,7,2.3,2.3,4.5,4.5,7.7,5.3,1.1,.3,2.2,.4,3.2,.4,1.5,0,3-.3,4.3-.8-2.8,3.6-6.9,5.3-12.4,5.3-7.9,0-11.5-3.6-14.9-7-2.3-2.3-4.5-4.5-7.7-5.3-1.1-.3-2.2-.4-3.2-.4-1.5,0-3,.3-4.3,.8,2.8-3.6,6.9-5.3,12.4-5.3V0M17.7,23.3c7.9,0,11.5,3.6,14.9,7,2.3,2.3,4.5,4.5,7.7,5.3,1.1,.3,2.2,.4,3.2,.4,1.5,0,3-.3,4.3-.8-2.8,3.6-6.9,5.3-12.4,5.3-7.9,0-11.5-3.6-14.9-7-2.3-2.3-4.5-4.5-7.7-5.3-1.1-.3-2.2-.4-3.2-.4-1.5,0-3,.3-4.3,.8,2.8-3.6,6.9-5.3,12.4-5.3M35.4,0c-9.4,0-15.4,4.7-17.7,14.2,2.8-3.8,6-5.7,9.6-5.7,.9,0,1.8,.1,2.8,.4,2.7,.7,4.6,2.6,6.8,4.8,3.5,3.5,7.5,7.6,16.3,7.6,9.4,0,15.4-4.7,17.7-14.2-2.8,3.8-6,5.7-9.6,5.7-.9,0-1.8-.1-2.8-.4-2.7-.7-4.6-2.6-6.8-4.8-3.5-3.5-7.5-7.6-16.3-7.6h0ZM17.7,21.3c-9.4,0-15.4,4.7-17.7,14.2,2.8-3.8,6-5.7,9.6-5.7,.9,0,1.8,.1,2.8,.4,2.7,.7,4.6,2.6,6.8,4.8,3.5,3.5,7.5,7.6,16.3,7.6,9.4,0,15.4-4.7,17.7-14.2-2.8,3.8-6,5.7-9.6,5.7-.9,0-1.8-.1-2.8-.4-2.7-.7-4.6-2.6-6.8-4.8-3.5-3.6-7.5-7.6-16.3-7.6h0Z"/></svg>