<?xml version="1.0" encoding="UTF-8"?><svg id="a" xmlns="http://www.w3.org/2000/svg" viewBox="0 0 44 44"><defs><style>.b{fill:#8980f5;}</style></defs><path class="b" d="M22,0C9.87,0,0,9.87,0,22s9.87,22,22,22,22-9.87,22-22S34.13,0,22,0Zm-4.72,13.9h-3.38V31.9h3.7v-10.63l12.96,17.98c-2.67,1.3-5.51,1.95-8.46,1.95-10.64,0-19.3-8.61-19.3-19.2S11.46,2.7,22.1,2.7s19.3,8.66,19.3,19.29c-.09,6.22-3.18,12.05-8.31,15.73L17.28,13.9Z"/><polygon class="b" points="26.2 25.21 30.1 31.14 30.1 13.9 26.2 13.9 26.2 25.21"/></svg>