<svg width="21" height="21" viewBox="0 0 21 21" fill="none" xmlns="http://www.w3.org/2000/svg">
<path d="M11.3669 20.9085C5.77354 21.558 0.702573 17.6293 0.0666632 12.1536C-0.569246 6.67788 3.46638 1.69155 9.05971 1.04198C9.96022 0.9374 10.8752 0.956986 11.7763 1.07885C12.0639 1.12094 12.2972 1.35812 12.3176 1.64518C12.3508 1.93076 12.1513 2.2056 11.8781 2.28767C8.8765 3.22771 6.9655 6.14261 7.32023 9.19709C7.53364 11.0347 8.55013 12.7036 10.112 13.7555C10.4043 13.948 10.4758 14.3424 10.2651 14.6312C10.0671 14.9184 9.66408 14.9904 9.37034 14.7854C7.51475 13.5286 6.30713 11.5421 6.0519 9.34438C5.7289 6.56307 6.97518 3.90154 9.16441 2.27564C4.29692 2.86608 0.791074 7.21202 1.34623 11.9924C1.90139 16.7728 6.33816 20.2215 11.2339 19.6529C14.3033 19.2965 16.8923 17.4605 18.2092 14.8537C16.6555 15.8647 14.6775 16.3209 12.7851 16.0751C12.4326 16.0279 12.1907 15.7163 12.2406 15.3707C12.2904 15.0251 12.6225 14.7852 12.9623 14.8339C15.2863 15.1428 17.6817 14.1851 19.1119 12.3328C19.2903 12.0981 19.6158 12.0226 19.8867 12.1421C20.1577 12.2616 20.3064 12.5464 20.2494 12.8299C19.3866 17.1331 15.8299 20.3776 11.3781 20.8946L11.3669 20.9085Z" fill="#FCFAFA"/>
</svg>
