<?xml version="1.0" encoding="UTF-8"?><svg id="a" xmlns="http://www.w3.org/2000/svg" viewBox="0 0 39.59 44.64"><defs><style>.b{fill:#8980f5;}</style></defs><path class="b" d="M19.79,44.64L3.56,40.08,0,0,39.59,.11l-3.56,39.97-16.23,4.56Zm-14.37-6.12l14.37,4.04,14.36-4.04L37.4,2.1l-35.21-.09,3.24,36.52Zm14.47-2.29l-10.54-2.96-.74-9.17h6.71l.32,3.92,4.26,1.15,4.27-1.15,.42-4.31H13.89l-.57-6.7h11.96l.23-2.7H7.79l-.58-6.7h25.36l-1.18,14.98v.22l-.99,10.48-10.51,2.96Zm-8.66-4.51l8.66,2.43,8.69-2.44,.02-.14,.8-8.86v-.21l1.01-12.9H9.37l.22,2.7H27.68l-.57,6.7H15.47l.23,2.7h11.1l-.78,7.89-6.13,1.65-6.14-1.65-.28-3.48h-2.69l.46,5.63Z"/></svg>