<svg width="32" height="20" viewBox="0 0 32 20" fill="none" xmlns="http://www.w3.org/2000/svg">
<path fill-rule="evenodd" clip-rule="evenodd" d="M7.8308 2.38623C7.56413 2.11808 6.74352 1.32959 5.60983 0.921506C5.01967 0.70907 4.31712 0.589485 3.5558 0.722369C2.78707 0.856544 2.02928 1.23602 1.32006 1.9105C0.612221 2.58368 0.196116 3.32002 0.054501 4.0943C-0.0859119 4.86201 0.0612287 5.56966 0.310547 6.16245C0.780814 7.28059 1.68359 8.13834 2.07199 8.50737C2.0805 8.51546 2.08877 8.52332 2.09677 8.53093L11.4183 17.3958C11.4183 17.3958 11.4183 17.3958 11.4183 17.3958C12.7482 18.6606 14.3477 19.3333 15.9913 19.3333C17.6349 19.3333 19.2344 18.6606 20.5644 17.3958C22.0242 16.0076 23.4078 14.6687 24.6667 13.4505C26.8575 11.3305 28.6704 9.57632 29.8482 8.56503C30.3001 8.177 31.2343 7.30901 31.7072 6.15356C31.9518 5.55577 32.087 4.84742 31.9378 4.08266C31.7876 3.31317 31.3678 2.58107 30.6627 1.91052C29.9535 1.2361 29.193 0.854103 28.4132 0.725135C27.6411 0.597429 26.9256 0.730096 26.3166 0.961757C25.1562 1.40318 24.2594 2.25667 23.8687 2.62844L17.6325 8.55912L19.0108 10.0084L25.2251 4.09852C25.6236 3.71954 26.2683 3.11994 27.0277 2.83107C27.3897 2.69337 27.7424 2.64135 28.0868 2.69833C28.4237 2.75405 28.8284 2.9261 29.2844 3.35978C29.7445 3.79734 29.9177 4.17334 29.9748 4.46578C30.0328 4.76295 29.9895 5.07036 29.8562 5.39599C29.5732 6.08739 28.9538 6.69688 28.5453 7.04763C27.3244 8.09597 25.4333 9.9256 23.1995 12.0869C21.9499 13.2959 20.593 14.6087 19.1862 15.9465C18.1858 16.8978 17.0665 17.3333 15.9913 17.3333C14.9161 17.3333 13.7969 16.8979 12.7966 15.9465L3.47505 7.08167C3.07159 6.69798 2.45029 6.09125 2.15413 5.38707C2.01508 5.05646 1.96805 4.74835 2.02187 4.45413C2.07448 4.16648 2.24099 3.79472 2.69834 3.35976C3.15428 2.92615 3.56164 2.75159 3.89969 2.69258C4.24513 2.63229 4.59098 2.68039 4.93245 2.8033C5.64509 3.05983 6.2132 3.59517 6.42161 3.80553L6.43285 3.81687L12.9734 10.0099L14.3485 8.55762L7.8308 2.38623Z" fill="#0D0D49"/>
</svg>
