<?xml version="1.0" encoding="UTF-8"?><svg id="a" xmlns="http://www.w3.org/2000/svg" viewBox="0 0 44.5 44.5"><defs><style>.b{fill:#8980f5;}</style></defs><path class="b" d="M21.5,34.7l-11.1-6.1v-12l11.1,6.4v11.7Zm1.5,0l11.1-6.1v-12l-11.1,6.4v11.7ZM11.1,15.2l11.1-6.1,11.1,6.1-11.1,6.4-11.1-6.4Z"/><path class="b" d="M34.1,32.4l2.8,1.6-12,6.8v-3.3l9.2-5.1m0-2.3l-11.2,6.2v8l18-10.2-6.8-4h0Z"/><path class="b" d="M40.2,15.1v14.4l-2.6-1.5v-11.4l2.6-1.5m2-3.5l-6.6,3.8v13.7l6.6,3.8h0V11.6h0Z"/><path class="b" d="M10.1,32.4l9.2,5.1v3.3l-12-6.8,2.8-1.6m0-2.3l-6.8,3.9,18,10.2v-7.9l-11.2-6.2h0Z"/><path class="b" d="M4,15.1l2.6,1.5v11.4l-2.6,1.5V15.1m-2-3.5v21.3l6.6-3.8V15.4l-6.6-3.8h0Z"/><path class="b" d="M19.3,3.2v3.1l-9.9,5.5-2.5-1.5L19.3,3.2M21.3-.3L2.8,10.2l6.6,3.8,.1-.1,11.9-6.5V-.3h-.1Z"/><path class="b" d="M24.9,3.2l12.5,7.1-2.5,1.5-9.9-5.5V3.2M22.9-.3V7.4l11.9,6.5,.1,.1,6.5-3.8h0L22.9-.3h0Zm18.5,10.5h0Z"/></svg>