<?xml version="1.0" encoding="UTF-8"?><svg id="a" xmlns="http://www.w3.org/2000/svg" viewBox="0 0 43.2 44.2"><defs><style>.b{fill:#8980f5;}</style></defs><path class="b" d="M43.1,9.8l-.1-.1c0-.1-.1-.1-.1-.1l-.1-.1c-.1,0-.1-.1-.1-.1l-8.2-4.7c-.2-.1-.4-.2-.6-.2s-.4,.1-.6,.2l-8.2,4.7-.1,.1-.1,.1-.1,.1-.1,.1c0,.1-.1,.1-.1,.2v9l-5.8,3.3V5.4q0-.1-.1-.2l-.1-.1c0-.1-.1-.1-.1-.1l-.1-.1-.1-.1-.1-.1L10.2,.1c-.5-.1-.8-.1-1-.1s-.4,.1-.6,.2L.4,4.9l-.1,.1-.1,.1-.1,.1c0,.1-.1,.1-.1,.2v28.3c0,.4,.2,.8,.6,1l16.3,9.4c.1,0,.1,.1,.2,.1h.8q.1,0,.2-.1l16.3-9.4c.4-.2,.6-.6,.6-1v-8.6l7.6-4.4c.4-.2,.6-.6,.6-1V10q0-.1-.1-.2ZM.46,5.22l.04,.08-.09-.04s.03-.02,.05-.03Zm33.24,1.98l5.8,3.3-5.8,3.3-5.8-3.3,5.8-3.3Zm-1.2,19.3v6.6l-13.9,8v-6.6l10.8-6.2,3.1-1.8ZM2.3,7.9l2.1,1.2,3.7,2.1V29.4q0,.1,.1,.1v.1l.1,.1s0,.1,.1,.1l.1,.1c.1,0,.1,.1,.1,.1l7.6,4.3v6.7l-13.9-7.9V7.9Zm1.1-2.1l5.8-3.3,5.8,3.3-5.8,3.3L3.4,5.8Zm12.8,2.1v15.9l-3.7,2.1-2.1,1.2V11.2l3.7-2.1,2.1-1.2Zm1.8,17.5l7.6-4.4,5.8,3.3-4.2,2.4-9.7,5.5-5.9-3.1,6.4-3.7Zm14.5-9.6v6.6l-2.1-1.2-3.7-2.1v-6.6l2.1,1.2,3.7,2.1Zm8.2-3.3v6.6l-5.8,3.3v-6.6l3.7-2.1,2.1-1.2Zm-23.5,31.5h-.2l-10.4-6,10.4,5.9c0,.1,.1,.1,.1,.1l.1-.2v.2h0Zm16.8-9.4l-16.3,9.4h-.06s.1-.1,.16-.2c.1-.1,.2-.1,.2-.1l16.22-9.35c-.05,.11-.12,.21-.22,.25Zm8.1-14l-7.3,4.21v-.11l7.47-4.27c-.05,.07-.1,.13-.17,.17Z"/></svg>