<?xml version="1.0" encoding="UTF-8"?><svg id="a" xmlns="http://www.w3.org/2000/svg" viewBox="0 0 30.3 44.5"><defs><style>.b{fill:#8980f5;}</style></defs><path class="b" d="M8.1,44.5c-4.47,0-8.1-3.63-8.1-8.1,0-3.02,1.66-5.66,4.11-7.05-2.46-1.39-4.11-4.03-4.11-7.05s1.7-5.72,4.2-7.1C1.7,13.82,0,11.16,0,8.1,0,3.63,3.63,0,8.1,0h14.1c4.47,0,8.1,3.63,8.1,8.1,0,3.04-1.69,5.7-4.17,7.08,2.51,1.36,4.17,4.01,4.17,7.12,0,4.47-3.63,8.1-8.1,8.1-2.38,0-4.52-1.03-6-2.66v8.66c0,4.47-3.63,8.1-8.1,8.1Zm-.83-14.14c-2.97,.41-5.26,2.96-5.26,6.04,0,3.42,2.68,6.1,6.1,6.1s6.1-2.74,6.1-6.1v-6h-6.1c-.28,0-.56-.01-.83-.04Zm8.94-6.95c.52,2.84,3.01,4.99,6,4.99,3.36,0,6.1-2.74,6.1-6.1s-2.68-6.1-6.1-6.1c-2.99,0-5.48,2.16-6,4.99v2.21Zm-8.1-7.21c-3.36,0-6.1,2.74-6.1,6.1,0,3.13,2.25,5.64,5.25,6.04,.28-.03,.56-.04,.85-.04h6.1v-4.72c-.07-.42-.1-.84-.1-1.28s.03-.86,.1-1.28v-4.82h-6.1Zm8.1,0v.66c.21-.23,.44-.46,.68-.66h-.68Zm6-2c3.36,0,6.1-2.74,6.1-6.1s-2.74-6.1-6.1-6.1h-6V14.2h6ZM8.1,2c-3.36,0-6.1,2.74-6.1,6.1s2.68,6.1,6.1,6.1h6V2h-6Z"/></svg>