<?xml version="1.0" encoding="UTF-8"?><svg id="a" xmlns="http://www.w3.org/2000/svg" viewBox="0 0 49.6 44.4"><defs><style>.b{fill:#8980f5;}</style></defs><circle class="b" cx="24.6" cy="22.2" r="4.5"/><path class="b" d="M41.9,14.7l-2.7-.9c.2-1,.4-1.9,.6-2.8,.8-5.3-.1-9-2.6-10.4-.8-.4-1.6-.6-2.5-.6-2.8,0-6.3,2.1-9.9,5.5C21.2,2,17.7,0,14.9,0,13.9,0,13.1,.2,12.4,.6c-2.5,1.5-3.5,5.2-2.6,10.4,.2,.9,.4,1.9,.6,2.8-1,.3-1.9,.6-2.7,.9-5,1.9-7.7,4.5-7.7,7.5s2.7,5.6,7.7,7.5l2.7,.9c-.2,1-.4,1.9-.6,2.8-.8,5.3,.1,9,2.6,10.4,.8,.4,1.6,.6,2.5,.6,2.8,0,6.4-2.1,9.9-5.5,3.6,3.5,7.1,5.5,9.9,5.5,1,0,1.8-.2,2.5-.6,2.5-1.5,3.5-5.2,2.6-10.4-.2-.9-.4-1.9-.6-2.8,1-.3,1.9-.6,2.7-.9,5-1.9,7.7-4.5,7.7-7.5s-2.7-5.6-7.7-7.5Zm-5.9-12.2c1.6,1,2.2,3.9,1.5,8.1-.1,.8-.3,1.7-.6,2.6-2.1-.5-4.3-.8-6.6-1-1.4-1.9-2.7-3.6-4.1-5.2,2.9-2.9,5.9-4.9,8.4-4.9,.5,.1,1,.2,1.4,.4Zm-4.5,23.6c-.7,1.3-1.6,2.5-2.4,3.8-1.5,.1-2.9,.2-4.5,.2s-3,0-4.5-.2c-.9-1.3-1.7-2.5-2.4-3.8-.8-1.3-1.5-2.7-2.1-4,.6-1.3,1.4-2.7,2.1-4,.7-1.3,1.6-2.5,2.4-3.8,1.5-.1,2.9-.2,4.5-.2s3,0,4.5,.2c.9,1.3,1.7,2.5,2.4,3.8,.8,1.3,1.5,2.7,2.1,4-.6,1.4-1.3,2.7-2.1,4Zm3.3-1.3c.6,1.4,1.1,2.7,1.5,4.1-1.4,.3-2.8,.6-4.3,.8,.5-.8,1-1.6,1.4-2.4,.6-.8,1-1.7,1.4-2.5Zm-10.2,10.8c-1-1-1.9-2.1-2.7-3.3,.9,0,1.8,.1,2.7,.1s1.8,0,2.7-.1c-.8,1.2-1.7,2.3-2.7,3.3Zm-7.4-6c-1.5-.2-2.9-.4-4.3-.8,.4-1.3,.9-2.7,1.5-4.1,.4,.8,.9,1.6,1.4,2.4,.5,1,1,1.7,1.4,2.5Zm-2.7-10.1c-.6-1.4-1.1-2.7-1.5-4.1,1.4-.3,2.8-.6,4.3-.8-.5,.8-1,1.6-1.4,2.4-.6,.9-1,1.7-1.4,2.5Zm10.1-10.8c1,1,1.9,2.1,2.7,3.3-.9,0-1.8-.1-2.7-.1s-1.8,0-2.7,.1c.9-1.2,1.8-2.3,2.7-3.3Zm8.9,8.4l-1.4-2.4c1.5,.2,2.9,.4,4.3,.8-.4,1.3-.9,2.7-1.5,4.1-.5-.9-.9-1.7-1.4-2.5ZM11.8,10.6c-.7-4.2-.1-7.1,1.5-8.1,.4-.2,.9-.4,1.4-.4,2.4,0,5.4,2,8.4,4.9-1.4,1.5-2.8,3.3-4.1,5.2-2.3,.2-4.5,.6-6.6,1-.3-.9-.5-1.8-.6-2.6ZM2,22.2c0-1.9,2.3-3.9,6.2-5.3,.8-.3,1.7-.6,2.5-.8,.6,2,1.4,4.1,2.4,6.2-1,2.1-1.8,4.2-2.4,6.2-5.4-1.7-8.7-4.1-8.7-6.3Zm11.3,19.6c-1.6-1-2.2-3.9-1.5-8.1,.1-.8,.3-1.7,.6-2.6,2.1,.5,4.3,.8,6.6,1,1.4,1.9,2.7,3.6,4.1,5.2-2.9,2.9-5.9,4.9-8.4,4.9-.5-.1-1-.2-1.4-.4Zm24.2-8.1c.7,4.2,.1,7.1-1.5,8.1-.4,.2-.9,.4-1.4,.4-2.4,0-5.4-2-8.4-4.9,1.4-1.5,2.8-3.3,4.1-5.2,2.3-.2,4.5-.6,6.6-1,.3,.9,.4,1.8,.6,2.6Zm3.6-6.2c-.8,.3-1.7,.6-2.5,.8-.6-2-1.4-4.1-2.4-6.2,1-2.1,1.8-4.2,2.4-6.2,5.5,1.6,8.8,4,8.8,6.2-.1,1.9-2.4,3.9-6.3,5.4Z"/></svg>