<svg width="56" height="42" viewBox="0 0 56 42" fill="none" xmlns="http://www.w3.org/2000/svg">
<path fill-rule="evenodd" clip-rule="evenodd" d="M0.156576 36.9407C-0.315655 38.2381 0.353312 39.6727 1.65076 40.145C2.9482 40.6172 4.38281 39.9482 4.85504 38.6508L17.4307 4.09941C17.9029 2.80197 17.234 1.36736 15.9365 0.895132C14.6391 0.422901 13.2045 1.09187 12.7322 2.38931L0.156576 36.9407ZM22.0289 14.1346C22.7755 12.9731 24.3223 12.6369 25.4837 13.3835L35.8969 20.0777C37.0583 20.8243 37.3946 22.3711 36.648 23.5325C36.4529 23.836 36.2032 24.0831 35.9199 24.2694C35.7421 24.4987 35.5209 24.7008 35.2595 24.8625L23.8472 31.9234C22.6731 32.6498 21.1323 32.2869 20.4059 31.1128C19.6794 29.9386 20.0423 28.3979 21.2165 27.6714L30.0048 22.234L22.7799 17.5894C21.6185 16.8428 21.2823 15.296 22.0289 14.1346Z" fill="#0D0D49"/>
<path fill-rule="evenodd" clip-rule="evenodd" d="M39.162 1.85506C37.8645 2.32729 37.1956 3.7619 37.6678 5.05935L50.2435 39.6107C50.7157 40.9082 52.1503 41.5771 53.4477 41.1049C54.7452 40.6327 55.4142 39.1981 54.9419 37.9006L42.3663 3.34924C41.894 2.0518 40.4594 1.38283 39.162 1.85506Z" fill="#49CBBF"/>
</svg>
