<?xml version="1.0" encoding="UTF-8"?><svg id="a" xmlns="http://www.w3.org/2000/svg" viewBox="0 0 44.6 44.6"><defs><style>.b{fill:#8980f5;}</style></defs><path class="b" d="M39.7,44.6H4.9c-2.7,0-4.9-2.2-4.9-4.9V4.9C0,2.2,2.2,0,4.9,0H39.7c2.62,0,4.78,2.13,4.9,4.85V39.7c0,2.7-2.2,4.9-4.9,4.9ZM4.9,2c-1.6,0-2.9,1.3-2.9,2.9V39.7c0,1.6,1.3,2.9,2.9,2.9H39.7c1.6,0,2.9-1.3,2.9-2.9V4.9c-.07-1.61-1.35-2.9-2.9-2.9H4.9Z"/><path class="b" d="M32.5,34.8c-2.98,0-4.9-1.84-4.9-4.7,0-.74,.13-1.54,.35-2.22l1.29-4.46c.16-.42,.16-.77,.16-1.12,0-.85-.45-1.3-1.3-1.3-.47,0-1.9,0-2.63,3.03l-2.4,9.8c-.11,.45-.51,.76-.97,.76h-4.3c-.31,0-.6-.14-.79-.39-.1-.13-.16-.27-.19-.42-1.04,.67-2.18,1.01-3.42,1.01-3.01,0-4.8-1.79-4.8-4.8,0-.54,0-1.43,.24-2.17l1.59-6.53h-1.73c-.31,0-.6-.14-.79-.39-.19-.25-.25-.57-.17-.87l.9-3.4c.12-.44,.51-.74,.97-.74h7.3c.31,0,.6,.14,.79,.39,.07,.09,.12,.19,.16,.3,.13-.41,.52-.69,.95-.69h6.5c.3,0,.59,.14,.78,.37,.17,.21,.25,.47,.22,.74,1.12-.89,2.45-1.51,3.91-1.51,2.69,0,5.4,1.86,5.4,6,0,1.1-.14,2.08-.44,3.09l-1.24,4.62c-.06,.27-.12,.56-.12,.69,0,.01,0,.02,0,.03,.18-.15,.58-.61,1.05-1.96,.09-.25,.27-.46,.51-.57,.24-.11,.52-.13,.77-.04l1.7,.6c.5,.18,.78,.72,.63,1.23-1.1,3.73-3.1,5.62-5.96,5.62Zm-4.4-15.8c1.94,0,3.3,1.36,3.3,3.3,0,.44,0,1.09-.27,1.77l-1.27,4.41c-.17,.51-.26,1.1-.26,1.62,0,1.01,.38,2.7,2.9,2.7,.86,0,1.99-.22,2.97-1.71-.45,.52-1.04,.91-1.77,.91-1.1,0-1.9-.88-1.9-2.1,0-.34,.07-.69,.16-1.1l.06-.3,1.22-4.47c.25-.84,.36-1.64,.36-2.54,0-2.47-1.3-4-3.4-4-1.2,0-2.38,.71-3.34,1.68,.43-.13,.85-.18,1.24-.18Zm-18.1,.3h1.7c.31,0,.6,.14,.79,.38s.26,.56,.19,.85l-1.9,7.8s-.01,.05-.02,.08c-.15,.45-.15,1.16-.15,1.58,0,1.91,.89,2.8,2.8,2.8,.96,0,1.84-.3,2.64-.91-.63,.18-1.16,.21-1.45,.21-.05,0-.11,0-.16-.01-1.17-.19-1.74-.88-1.74-2.09,0-.65,.18-1.44,.34-1.97l2.58-10.13h-5.25l-.37,1.4Zm9.09,13.3h2.22l2.21-9.04c.18-.75,.41-1.38,.67-1.91-.01,0-.03,0-.04-.01-.47-.17-.74-.66-.63-1.14l.55-2.59h-4.5l-.37,1.4h1.8c.31,0,.6,.14,.79,.39,.19,.24,.26,.56,.18,.86l-1.9,7.5c-.01,.06-.04,.11-.06,.17-.26,.56-.54,1.05-.85,1.46,.34,.23,.51,.66,.41,1.08l-.48,1.85Zm-2.12-11.93l-2,7.87c-.17,.6-.27,1.13-.27,1.45,0,.04,0,.07,0,.1,.65-.03,2.37-.33,3.45-2.63l1.56-6.17h-1.81c-.31,0-.6-.14-.79-.39-.06-.07-.1-.15-.14-.24Zm-7.17,7.43h0Zm5.4-12.7c-2.02,0-3.6-1.58-3.6-3.6s1.58-3.6,3.6-3.6,3.6,1.58,3.6,3.6-1.58,3.6-3.6,3.6Zm0-5.2c-.9,0-1.6,.7-1.6,1.6s.7,1.6,1.6,1.6,1.6-.7,1.6-1.6-.7-1.6-1.6-1.6Z"/></svg>