<?xml version="1.0" encoding="UTF-8"?><svg id="a" xmlns="http://www.w3.org/2000/svg" viewBox="0 0 44.72 42.6"><defs><style>.b{fill:#8980f5;}</style></defs><path class="b" d="M7.43,7.5c-3.2,6.1-1.7,13.5,2.2,18.8l.1,.1c.2,.2,.3,.4,.5,.7l.4,.5c0,.1,.1,.1,.1,.2,.2,.2,.3,.4,.5,.6h0c.2,.2,.3,.4,.5,.5l.2,.2,.4,.4,.2,.2,.6,.5h0c.2,.2,.4,.4,.6,.5l.2,.2c.1,.1,.3,.2,.4,.3,.1,.1,.2,.1,.2,.2h0c.2,.1,.4,.3,.5,.4,.1,0,.1,.1,.2,.1,.2,.1,.3,.2,.5,.3,.1,0,.1,.1,.2,.1l-.1-.1c.3,.2,.6,.4,.8,.5,.1,0,.1,.1,.2,.1l.6,.3h0c.1,.1,.2,.1,.3,.2,.2,.1,.3,.2,.5,.2,.1,0,.1,.1,.2,.1l-.2-.1c.3,.1,.6,.3,.8,.4q.1,0,.1,.1c.2,.1,.5,.2,.7,.3h0q.1,0,.2,.1c.2,.1,.4,.2,.7,.2h-.1c.4,.1,.7,.2,1.1,.4,.3,.1,.5,.2,.8,.2,1.8,.4,3.6,.6,5.4,.6,5.3,0,10.3-1.8,13.5-5.9,0,0-4,10.9-17.4,10.9-1.5,0-3.2-.1-5-.5l-1-.3c-.3-.1-.5-.2-.8-.3h-.1c-.2-.1-.5-.2-.7-.3-.1,0-.1-.1-.2-.1-.3-.1-.5-.2-.7-.3,0,0-.1,0-.1-.1l-.6-.3c-.1,0-.1-.1-.2-.1h-.1c-.1-.1-.3-.1-.4-.2,.1,.1,0,.1-.1,0l-.6-.3c-.1,0-.1-.1-.2-.1-.2-.1-.5-.3-.7-.5l-.2-.1-.5-.3h0c-.1,0-.1-.1-.2-.1-.2-.1-.3-.2-.5-.3l-.2-.2c-.1-.1-.3-.2-.4-.3l-.2-.2c-.2-.1-.4-.3-.5-.4l-.1-.1h0c-.2-.2-.4-.3-.6-.5l-.2-.2-.4-.4h0c-.3-.2-.5-.5-.7-.7h0c-.2-.2-.4-.4-.5-.6,0-.1-.1-.1-.1-.2l-.4-.5c0-.1-.1-.1-.1-.2-.1-.2-.3-.3-.4-.5-.2-.2-.3-.5-.5-.8,0-.1-.1-.1-.1-.2-.1-.2-.2-.3-.3-.5-.1-.1-.1-.2-.2-.2l-.5-.5c0-.1-.1-.2-.1-.3l-.1-.1c0-.1-.1-.2-.1-.2h0c-.1-.1-.1-.3-.2-.4-2.7-5.5-3.2-12.1,.4-17.3l2.8-3.6m8.4,24.7h0M7.43,5.5c-.6,0-1.2,.3-1.6,.8l-2.8,3.5s0,.1-.1,.1C-.77,15.2-.97,22.4,2.33,29.2c.1,.1,.1,.3,.2,.4h0c.1,.1,.1,.2,.2,.3,0,.1,.1,.1,.1,.2s.1,.1,.1,.2v.2l.3,.4c.1,.1,.1,.2,.2,.3,.1,.1,.1,.2,.2,.3,0,.1,.1,.1,.1,.2v.1c.1,.1,.1,.2,.1,.2l.6,.9c.1,.1,.2,.3,.4,.5l.1,.1v.1s0,.1,.1,.1l.4,.5h0q.1,.1,.1,.2c.1,.2,.3,.4,.5,.5h0l.9,.9,.4,.4,.2,.1c.2,.2,.4,.4,.7,.6h0c.2,.2,.4,.3,.6,.5l.2,.2c.1,.1,.2,.2,.4,.3l.1,.1,.2,.2c.1,.1,.3,.2,.4,.3l.1,.1c.1,0,.1,.1,.2,.1l.1,.1,.5,.3,.2,.1c.3,.2,.6,.3,.8,.5l.1,.1h.2l.6,.3c.1,.1,.2,.1,.3,.2h0c.1,.1,.3,.1,.4,.2,.1,0,.1,.1,.2,.1h.1c.2,.1,.5,.2,.7,.3h.1c.3,.1,.5,.2,.8,.3h.2c.2,.1,.5,.2,.7,.3h.1l.9,.3,1,.3h.2c1.9,.3,3.7,.5,5.4,.5,14.5,0,19.1-11.7,19.2-12.2,.3-.9,0-2-.9-2.4-.3-.2-.6-.3-1-.3-.6,0-1.2,.3-1.6,.8-2.6,3.3-6.8,5.2-11.9,5.2-1.6,0-3.3-.2-5-.6-.1,0-.3-.1-.5-.1l-.2-.1c-.3-.1-.5-.1-.7-.2h-.3c-.2-.1-.4-.1-.5-.2h0c-.1,0-.2-.1-.3-.1l-.6-.3h-.2c-.1-.1-.3-.1-.4-.2-.1,0-.1-.1-.2-.1l-.1-.1c-.1,0-.2-.1-.3-.1l-.1-.1h-.1c-.1,0-.1-.1-.2-.1h-.1c-.1,0-.2-.1-.3-.1s-.2-.1-.2-.1c-.1,0-.1-.1-.2-.1-.2-.1-.4-.2-.6-.4,0,0-.1,0-.1-.1h-.1s-.1,0-.1-.1h-.1c-.1-.1-.3-.2-.4-.3h-.1l-.1-.1c-.1-.1-.3-.2-.4-.3-.1-.1-.2-.1-.3-.2l-.2-.1c-.1-.1-.2-.1-.2-.2l-.2-.2c-.2-.1-.4-.3-.5-.4l-.6-.5-.1-.1-.3-.3-.1-.1-.1-.1-.5-.5-.1-.1c-.1-.2-.3-.3-.4-.5l.4-.2-.4-.4c-.1-.2-.3-.4-.4-.6v-.1c-3.8-5.2-4.7-11.8-2.1-16.8,.5-.9,.2-2-.7-2.6-.4-.1-.7-.3-1.1-.3h0Zm0,4h0Z"/><path class="b" d="M17.83,3.8h0m0,0c-1.7,2.9-1.9,6.5-.9,9.7,.9,3.1,2.9,5.8,5.5,7.8,.1,0,.1,.1,.2,.1,.2,.2,.5,.4,.7,.5l.4,.2c.1,0,.1,.1,.2,.1,.2,.1,.4,.2,.5,.3h0s.1,0,.1,.1c.1,.1,.3,.2,.4,.3l.2,.1,.3,.2c.2,.1,.5,.2,.7,.3,0,0,.1,0,.2,.1,.2,.1,.4,.2,.6,.2l.2,.1c.2,.1,.4,.1,.5,.2q.1,0,.2,.1h-.1c.3,.1,.6,.2,.9,.2,1.3,.3,2.6,.5,3.9,.5,4.2,0,7.9-1.8,10.1-4.9,0,0-2.5,8.4-12.9,8.4-1.1,0-2.3-.1-3.6-.3-.3,0-.5-.1-.8-.2l-.2-.3c-.2-.1-.4-.1-.5-.2-.1,0-.2-.1-.2-.1-.2-.1-.4-.1-.6-.2,0,0-.1,0-.2-.1-.2-.1-.5-.2-.7-.3h-.1c-.1-.1-.2-.1-.3-.2-.1,0-.1-.1-.2-.1-.2-.1-.3-.2-.5-.3h-.1c-.2-.1-.4-.2-.5-.3-.1,0-.1-.1-.2-.1-.1-.1-.2-.1-.3-.2h0c-.2-.2-.5-.3-.7-.5-.1,0-.1-.1-.2-.1h0c-.2-.2-.5-.4-.7-.5h0c-.2-.2-.4-.4-.6-.5l-.2-.2-.6-.6c-1.8-1.7-2.5-3.6-2.5-3.6-2-3.9-2.2-8.9,.4-12.6l2.2-3.1m10,20.3h0M17.83,1.8h-.1c-.3,0-.6,.1-.8,.2-.2,.1-.4,.3-.6,.5l-.1,.1-2.1,3c-2.8,4.1-3.1,9.8-.6,14.6,.2,.5,1.1,2.4,2.9,4.1,.2,.2,.4,.5,.6,.6l.1,.1c.2,.2,.4,.4,.7,.6h.1c.2,.2,.5,.4,.7,.6h.1l.1,.1c.3,.2,.5,.4,.8,.6h.1c.1,.1,.2,.2,.3,.2s.1,.1,.2,.1c.2,.1,.4,.2,.5,.3,.1,0,.1,.1,.2,.1,.2,.1,.3,.2,.5,.3,0,0,.1,0,.1,.1,0,0,.1,0,.1,.1,.1,0,.2,.1,.3,.1,0,0,.1,0,.1,.1h0c.2,.1,.4,.2,.7,.3,0,0,.1,.1,.2,.1h.1c.2,.1,.4,.2,.7,.3h.1q.1,0,.2,.1c.1,0,.3,.1,.4,.1l.1,.1,.3,.1,.2,.1c.2,.1,.5,.2,.9,.2,1.3,.2,2.7,.3,3.9,.3,6.1,0,9.8-2.6,11.8-4.8,2.2-2.4,2.9-4.7,3-5,.3-.9-.2-1.9-1-2.4-.3-.1-.6-.2-.9-.2-.6,0-1.3,.3-1.6,.9-1.8,2.6-4.9,4.1-8.4,4.1-1.1,0-2.2-.1-3.4-.4-.2,0-.4-.1-.6-.2q-.1,0-.2-.1h-.2l-.2,.1c-.1,0-.2-.1-.3-.1l-.2-.1-.2-.1c-.1,0-.2-.1-.3-.1h-.2l-.1-.1c-.2-.1-.3-.1-.5-.2l-.3-.2-.2-.1c-.1,0-.2-.1-.3-.2h-.1l-.2-.1c-.1-.1-.2-.1-.3-.2,0,0-.1,0-.1-.1h-.1l-.3-.2c-.1-.1-.3-.2-.4-.3l-.2-.1-.1-.1-.1-.1c-2.3-1.8-4-4.2-4.8-6.8-.9-2.8-.6-5.7,.7-8,.2-.3,.3-.7,.3-1.1,0-1-.8-1.9-2-1.9q.1,0,0,0h0Zm0,4h0Z"/><path class="b" d="M26.23,2h0m0,0c-2.1,3.8-.1,8.4,3.2,10.9,.6,.4,1.1,.8,1.8,1.1h-.1c.4,.2,.7,.3,1.1,.5h-.1l.9,.3c1,.2,2,.4,2.9,.4,2.3,0,4.2-.8,5.4-2.6-.5,.7-2.1,4.8-7.5,4.8-.7,0-1.5-.1-2.4-.2-.2,0-.3-.1-.5-.1h-.1c-.1,0-.2-.1-.3-.1-2.7-1-5-3-6.1-5.7-1.1-2.5-.9-5.3,.6-7.5l1.2-1.8m15.3,10.4h0m0,0h0M26.23,0h-.1c-.3,0-.6,.1-.8,.2-.2,.1-.4,.3-.6,.5l-.1,.1-1.1,1.5h0c-1.9,2.7-2.2,6.2-.8,9.4,1.3,3.1,4,5.6,7.2,6.8,.1,0,.2,.1,.2,.1h.4c.2,.1,.4,.1,.5,.2h.1c1,.2,1.9,.3,2.8,.3,6,0,8.3-4.1,9-5.4,0-.1,.1-.1,.1-.2s.1-.1,.1-.2c.5-.9,.2-2-.6-2.6-.3-.2-.7-.4-1.1-.4-.2,0-.4,0-.5,.1-.2,.1-.4,.1-.6,.3-.2,.1-.3,.2-.5,.4l-.1,.1c-.8,1.2-2.1,1.8-3.8,1.8-.7,0-1.6-.1-2.4-.3-.2,0-.4-.1-.6-.2h-.1c-.3-.1-.5-.2-.8-.3h0c-.6-.3-1-.6-1.5-.9-2.4-1.9-4.1-5.5-2.6-8.3,.2-.3,.3-.7,.3-1,0-1.1-.8-2-2-2q.1,0,0,0h0Zm0,4h0Z"/></svg>