<svg width="26" height="19" viewBox="0 0 26 19" fill="none" xmlns="http://www.w3.org/2000/svg">
<path fill-rule="evenodd" clip-rule="evenodd" d="M3.61459 2.66071C3.61459 1.43789 4.62859 0.5 5.8125 0.5H20.1873C21.3712 0.5 22.3852 1.43789 22.3852 2.66071V13.6107C22.3852 13.6519 22.4075 13.7055 22.4694 13.7415L24.1689 14.7295C26.1606 15.8874 25.2087 18.75 23.0499 18.75H2.94989C0.791092 18.75 -0.160806 15.8874 1.83097 14.7295L3.82747 13.5688L4.33008 14.4333L3.82747 13.5688C4.16759 13.371 4.55424 13.2679 4.94639 13.2679H17.7915C18.3438 13.2679 18.7915 13.7156 18.7915 14.2679C18.7915 14.8201 18.3438 15.2679 17.7915 15.2679H4.94639C4.90432 15.2679 4.86491 15.279 4.83268 15.2978L2.83618 16.4585C2.77157 16.4961 2.75993 16.5265 2.75647 16.5358C2.74989 16.5535 2.74558 16.5845 2.75694 16.6243C2.76829 16.664 2.79042 16.6947 2.81412 16.7134C2.83153 16.7271 2.86813 16.75 2.94989 16.75H23.0499C23.1317 16.75 23.1683 16.7271 23.1857 16.7134C23.2094 16.6947 23.2315 16.664 23.2429 16.6243C23.2542 16.5845 23.2499 16.5535 23.2434 16.5358C23.2399 16.5265 23.2283 16.4961 23.1636 16.4585L21.4642 15.4705C20.8045 15.0869 20.3852 14.3849 20.3852 13.6107V2.66071C20.3852 2.60145 20.3266 2.5 20.1873 2.5H5.8125C5.67324 2.5 5.61459 2.60145 5.61459 2.66071V10.7857C5.61459 11.338 5.16688 11.7857 4.61459 11.7857C4.06231 11.7857 3.61459 11.338 3.61459 10.7857V2.66071Z" fill="#0D0D49"/>
</svg>
