<svg width="19" height="27" viewBox="0 0 19 27" fill="none" xmlns="http://www.w3.org/2000/svg">
<path fill-rule="evenodd" clip-rule="evenodd" d="M14.0848 0.188765C14.3455 0.376716 14.5001 0.678564 14.5001 1.00001V3.77779C14.5001 4.33007 14.0523 4.77778 13.5001 4.77778C12.9478 4.77778 12.5001 4.33007 12.5001 3.77779V2.38743L5.93819 4.57472L17.7498 5.55902C18.2681 5.60221 18.6667 6.03547 18.6667 6.55556V26C18.6667 26.2797 18.5496 26.5465 18.3438 26.7359C18.138 26.9252 17.8624 27.0198 17.5837 26.9966L0.917008 25.6077C0.398716 25.5645 5.33945e-05 25.1312 5.33945e-05 24.6111V7.94445C5.33945e-05 7.39217 0.447769 6.94445 1.00005 6.94445C1.55234 6.94445 2.00005 7.39217 2.00005 7.94445V23.691L16.6667 24.9132V7.4757L0.917008 6.16322C0.443865 6.12379 0.0636713 5.7571 0.00716178 5.2857C-0.0493478 4.81429 0.233407 4.36813 0.683826 4.21799L13.1838 0.051324C13.4888 -0.0503253 13.824 0.000813857 14.0848 0.188765ZM4.16967 11.34C4.21202 10.7893 4.69276 10.3773 5.24342 10.4196L14.2712 11.1141C14.8219 11.1564 15.2339 11.6372 15.1916 12.1878C15.1492 12.7385 14.6685 13.1505 14.1178 13.1082L5.09002 12.4137C4.53937 12.3714 4.12731 11.8906 4.16967 11.34ZM4.16967 16.2011C4.21202 15.6504 4.69276 15.2384 5.24342 15.2807L14.2712 15.9752C14.8219 16.0175 15.2339 16.4983 15.1916 17.0489C15.1492 17.5996 14.6685 18.0116 14.1178 17.9693L5.09002 17.2748C4.53937 17.2325 4.12731 16.7517 4.16967 16.2011ZM4.16967 20.3678C4.21202 19.8171 4.69276 19.405 5.24342 19.4474L14.2712 20.1418C14.8219 20.1842 15.2339 20.6649 15.1916 21.2156C15.1492 21.7662 14.6685 22.1783 14.1178 22.136L5.09002 21.4415C4.53937 21.3991 4.12731 20.9184 4.16967 20.3678Z" fill="#0D0D49"/>
</svg>
